#!OML:ASF F:\VICON\USERDATA\INSTALL\rory3\rory3.ASF
:FULLY-SPECIFIED
:DEGREES
198
root -4.72262 15.7094 3.05656 -170.626 58.9109 -167.983
lowerback 8.38321 1.44177 4.68983
upperback -1.14489 2.50198 1.12091
thorax -5.75936 1.10931 -1.7915
lowerneck -12.1096 -7.72386 -12.5369
upperneck 23.6574 -9.81495 9.06881
head 10.6929 -4.45237 4.06941
rclavicle 9.23914e-014 1.23246e-014
rhumerus -32.7979 -0.125837 -89.0781
rradius 28.8411
rwrist 9.13986
rhand -17.035 13.2671
rfingers 7.12502
rthumb 9.20158 -16.5121
lclavicle 9.23914e-014 1.23246e-014
lhumerus -38.2751 20.0117 74.578
lradius 17.5988
lwrist -11.5407
lhand -12.3009 12.3012
lfingers 7.12502
lthumb 13.767 41.8258
rfemur 17.3663 2.87569 31.7034
rtibia 17.2951
rfoot -8.86212 -12.3817
rtoes -13.905
lfemur -26.8933 -9.73506 -13.6026
ltibia 29.4993
lfoot -7.94732 18.7029
ltoes -0.633405
199
root -4.60435 15.7116 2.94772 -171.439 58.7809 -168.7
lowerback 8.4074 1.43178 4.40181
upperback -1.11571 2.44944 1.01349
thorax -5.75157 1.0902 -1.73619
lowerneck -12.102 -7.7649 -12.6273
upperneck 23.6334 -9.88096 9.17501
head 10.7024 -4.47937 4.11303
rclavicle 3.55856e-014 6.95746e-015
rhumerus -33.1901 -0.5223 -88.834
rradius 28.5278
rwrist 9.43397
rhand -17.14 13.5191
rfingers 7.12502
rthumb 9.10021 -16.2646
lclavicle 3.55856e-014 6.95746e-015
lhumerus -38.3343 21.1056 73.6895
lradius 16.864
lwrist -13.7768
lhand -12.3769 12.2772
lfingers 7.12502
lthumb 13.6938 41.8067
rfemur 16.8513 2.16765 31.012
rtibia 19.4951
rfoot -7.87257 -12.006
rtoes -16.1064
lfemur -26.292 -9.75322 -14.2788
ltibia 29.7226
lfoot -7.48448 18.3847
ltoes -0.263722
200
root -4.48724 15.7199 2.83663 -172.289 58.6789 -169.671
lowerback 8.21548 1.45889 3.96423
upperback -1.13724 2.41923 0.889862
thorax -5.67795 1.08711 -1.6103
lowerneck -11.9835 -7.81268 -12.7372
upperneck 23.5453 -9.94523 9.21991
head 10.6646 -4.51782 4.1392
rclavicle 2.26133e-014 1.8487e-014
rhumerus -33.6081 -0.850811 -88.5573
rradius 28.1992
rwrist 9.63616
rhand -17.1178 13.7634
rfingers 7.12502
rthumb 9.12164 -16.0193
lclavicle 2.26133e-014 1.8487e-014
lhumerus -38.4269 22.4455 72.6836
lradius 16.0402
lwrist -16.3505
lhand -12.4968 12.2705
lfingers 7.12502
lthumb 13.5782 41.8077
rfemur 16.091 1.51819 30.116
rtibia 21.7145
rfoot -6.82357 -11.7138
rtoes -16.0225
lfemur -25.895 -9.66508 -15.1024
ltibia 30.0295
lfoot -7.36923 17.9297
ltoes 0.0930766
201
root -4.37318 15.7289 2.72437 -172.833 58.5699 -170.306
lowerback 8.0083 1.45226 3.73994
upperback -1.16544 2.37006 0.793461
thorax -5.59674 1.06884 -1.57263
lowerneck -11.8801 -7.85353 -12.7639
upperneck 23.5257 -9.99868 9.18888
head 10.6443 -4.55038 4.1265
rclavicle -2.60307e-014 -9.34288e-015
rhumerus -33.9424 -1.13447 -88.3385
rradius 27.806
rwrist 9.93758
rhand -17.0534 13.7751
rfingers 7.12502
rthumb 9.18383 -16.0049
lclavicle -2.60307e-014 -9.34288e-015
lhumerus -38.6333 24.0235 71.4692
lradius 15.2979
lwrist -19.1722
lhand -12.5537 12.1263
lfingers 7.12502
lthumb 13.5234 41.6672
rfemur 15.1867 0.841449 29.3601
rtibia 24.0554
rfoot -5.52312 -11.4758
rtoes -17.3469
lfemur -25.5041 -9.42458 -15.7934
ltibia 30.3669
lfoot -7.17856 17.4739
ltoes -0.0296271
202
root -4.26132 15.7354 2.61053 -173.363 58.4695 -170.919
lowerback 7.80996 1.4824 3.61418
upperback -1.18296 2.37653 0.626974
thorax -5.4996 1.07389 -1.6699
lowerneck -11.8675 -7.92587 -12.607
upperneck 23.5686 -10.1123 9.08603
head 10.6567 -4.59829 4.04674
rclavicle 3.34098e-014 8.34896e-015
rhumerus -34.2924 -1.63401 -88.112
rradius 27.504
rwrist 10.44
rhand -17.0749 13.8561
rfingers 7.12502
rthumb 9.16311 -15.9248
lclavicle 3.34098e-014 8.34896e-015
lhumerus -38.7402 25.0724 70.4929
lradius 14.7318
lwrist -21.5469
lhand -12.663 11.9713
lfingers 7.12502
lthumb 13.4181 41.5192
rfemur 14.2008 0.201651 28.5895
rtibia 26.5114
rfoot -3.9217 -11.4746
rtoes -18.038
lfemur -25.0571 -9.21521 -16.4891
ltibia 30.6815
lfoot -7.14309 17.0342
ltoes -0.0105238
203
root -4.15166 15.7404 2.49786 -173.711 58.3741 -171.388
lowerback 7.61787 1.53269 3.55546
upperback -1.25505 2.42187 0.498074
thorax -5.4604 1.09513 -1.77121
lowerneck -11.8622 -8.02041 -12.5223
upperneck 23.6817 -10.2439 8.99311
head 10.7038 -4.65785 3.98082
rclavicle -2.91942e-014 -5.96354e-015
rhumerus -34.7175 -2.1023 -87.827
rradius 27.2689
rwrist 10.96
rhand -17.0847 14.0527
rfingers 7.12502
rthumb 9.15363 -15.7286
lclavicle -2.91942e-014 -5.96354e-015
lhumerus -38.8681 26.0087 69.582
lradius 14.1718
lwrist -23.6559
lhand -12.7201 11.7824
lfingers 7.12502
lthumb 13.363 41.3339
rfemur 13.0726 -0.230661 27.9816
rtibia 29.0363
rfoot -2.24672 -11.8922
rtoes -17.2157
lfemur -24.6637 -9.15295 -17.0337
ltibia 30.9699
lfoot -7.49251 16.6244
ltoes 1.31951
204
root -4.04107 15.7479 2.39065 -174.154 58.3391 -172.052
lowerback 7.37408 1.58502 3.27899
upperback -1.33671 2.44797 0.372295
thorax -5.41142 1.11388 -1.74322
lowerneck -11.8749 -8.09068 -12.4805
upperneck 23.7947 -10.3428 8.95062
head 10.7556 -4.70035 3.94491
rclavicle 2.08708e-014 -1.19271e-015
rhumerus -35.0849 -2.12842 -87.722
rradius 27.0452
rwrist 11.0733
rhand -17.1541 14.1127
rfingers 7.12502
rthumb 9.08661 -15.6715
lclavicle 2.08708e-014 -1.19271e-015
lhumerus -38.9452 26.6625 68.9042
lradius 13.786
lwrist -25.1284
lhand -12.6623 11.8085
lfingers 7.12502
lthumb 13.4187 41.3563
rfemur 11.7723 -0.481964 27.3539
rtibia 31.6305
rfoot -0.690631 -12.3358
rtoes -15.5616
lfemur -24.3241 -9.11768 -17.646
ltibia 31.2087
lfoot -7.83521 16.3202
ltoes 2.24122
205
root -3.9307 15.756 2.28668 -174.873 58.3763 -173.095
lowerback 7.06562 1.62965 2.68207
upperback -1.40284 2.43307 0.238142
thorax -5.32373 1.12321 -1.53705
lowerneck -11.9298 -8.12657 -12.4898
upperneck 23.8846 -10.3854 8.93715
head 10.805 -4.71871 3.93483
rclavicle -4.30384e-014 -1.15295e-014
rhumerus -35.4212 -1.84517 -87.7169
rradius 26.9424
rwrist 10.9747
rhand -17.024 14.1304
rfingers 7.12502
rthumb 9.2122 -15.6484
lclavicle -4.30384e-014 -1.15295e-014
lhumerus -39.0401 27.512 68.2247
lradius 13.4829
lwrist -26.3619
lhand -12.6091 11.8835
lfingers 7.12502
lthumb 13.47 41.4279
rfemur 10.3549 -0.6743 26.524
rtibia 34.2727
rfoot 0.907014 -12.6939
rtoes -14.4305
lfemur -23.9943 -8.87762 -18.5192
ltibia 31.398
lfoot -7.94977 16.0171
ltoes 1.36156
206
root -3.8252 15.7597 2.18513 -175.384 58.3832 -173.81
lowerback 6.91903 1.63979 2.27268
upperback -1.47725 2.40239 0.173923
thorax -5.33298 1.11877 -1.36747
lowerneck -12.0039 -8.1433 -12.5079
upperneck 23.9947 -10.3825 8.86654
head 10.8572 -4.72302 3.91187
rclavicle -3.59614e-014 2.38542e-015
rhumerus -35.7464 -1.61074 -87.6486
rradius 26.8446
rwrist 11.0647
rhand -16.8479 14.2493
rfingers 7.12502
rthumb 9.38214 -15.5219
lclavicle -3.59614e-014 2.38542e-015
lhumerus -39.0992 27.8415 67.9656
lradius 13.4321
lwrist -26.6954
lhand -12.5962 11.9717
lfingers 7.12502
lthumb 13.4824 41.5153
rfemur 8.95121 -0.801571 25.9075
rtibia 36.9782
rfoot 2.22724 -13.2442
rtoes -12.1601
lfemur -23.5579 -8.60188 -19.2273
ltibia 31.5068
lfoot -7.97448 15.6782
ltoes 0.0723042
207
root -3.72405 15.7605 2.08597 -175.71 58.381 -174.192
lowerback 6.95101 1.63722 2.11162
upperback -1.54524 2.3836 0.126718
thorax -5.4274 1.11172 -1.32682
lowerneck -12.0488 -8.14725 -12.4806
upperneck 24.0869 -10.3681 8.77474
head 10.8915 -4.72118 3.87609
rclavicle 2.85132e-014 -1.64991e-014
rhumerus -36.0011 -1.46724 -87.5859
rradius 26.6806
rwrist 11.2978
rhand -16.77 14.2923
rfingers 7.12502
rthumb 9.45731 -15.4755
lclavicle 2.85132e-014 -1.64991e-014
lhumerus -38.9191 27.0142 68.4961
lradius 13.6833
lwrist -25.6161
lhand -12.5687 12.1399
lfingers 7.12502
lthumb 13.5089 41.6817
rfemur 7.59975 -0.956216 25.4993
rtibia 39.7333
rfoot 3.54272 -13.6233
rtoes -10.5415
lfemur -22.9649 -8.47379 -19.7211
ltibia 31.5025
lfoot -8.10566 15.3965
ltoes -0.446008
